<svg xmlns="http://www.w3.org/2000/svg" width="256" height="256"><path fill-opacity=".016" d="M0 128.004v128.004l128.25-.254 128.25-.254.254-127.75L257.008 0H0v128.004m.485.496c0 70.4.119 99.053.265 63.672.146-35.38.146-92.98 0-128C.604 29.153.485 58.1.485 128.5" fill="#212121" fill-rule="evenodd"/><path fill-opacity=".362" d="M106.821 40.349C98.059 42.794 91.098 50.111 89.074 59c-.564 2.475-1.036 7.987-1.05 12.25L88 79H52.319L46.2 82.058C39.311 85.5 35.763 89.201 32.355 96.5l-2.335 5-.01 45.572c-.011 51.183-.004 51.245 7.101 59.316 2.209 2.51 6.487 5.74 9.675 7.306L52.5 216.5h151l5.714-2.806c3.188-1.566 7.466-4.796 9.675-7.306 7.105-8.071 7.112-8.133 7.101-59.316l-.01-45.572-2.335-5c-3.408-7.299-6.956-11-13.845-14.442L203.681 79h-35.419l-.459-10.33c-.531-11.933-2.65-17.572-8.548-22.751-6.582-5.779-8.961-6.316-29.255-6.609-12.914-.187-19.913.127-23.179 1.039M110.2 61.2c-.741.741-1.2 4.378-1.2 9.5V79h38v-8.3c0-5.122-.459-8.759-1.2-9.5-1.684-1.684-33.916-1.684-35.6 0m-57.277 40.723L50 104.846v85.308l2.923 2.923L55.846 196h144.308l2.923-2.923 2.923-2.923v-85.308l-2.923-2.923L200.154 99H55.846l-2.923 2.923m65.363 12.468c-6.619 2.163-12.859 6.247-16.599 10.865-4.662 5.755-6.281 9.192-7.679 16.299-2.897 14.724 5.051 30.398 18.85 37.175 4.963 2.437 6.786 2.77 15.142 2.77s10.179-.333 15.142-2.77c6.904-3.391 13.182-10.012 16.626-17.535 5.421-11.841 2.698-27.213-6.567-37.076-8.617-9.173-23.729-13.383-34.915-9.728m5.357 19.606c-12.063 3.747-12.977 20.597-1.443 26.598 5.408 2.813 11.781 1.291 16.717-3.992 3.388-3.627 3.986-11.843 1.186-16.299-3.539-5.633-10.296-8.222-16.46-6.307" fill="#212121" fill-rule="evenodd"/><path fill-opacity=".288" d="M102.222 42.563C92.457 47.455 89 54.359 89 68.968V79H72.182c-21.613 0-25.336.992-33.175 8.839C29.841 97.014 30 95.96 30 147.641c0 42.15.098 44.547 2.044 49.746 2.337 6.248 7.926 12.491 14.165 15.822L50.5 215.5l76.357.274 76.357.274 5.299-2.425c6.956-3.185 12.897-9.431 15.443-16.236 1.946-5.199 2.044-7.596 2.044-49.746 0-51.681.159-50.627-9.007-59.802-7.832-7.84-11.571-8.839-33.088-8.839h-16.733l-.336-11.334c-.314-10.579-.537-11.658-3.362-16.223-1.871-3.023-4.895-6.046-7.918-7.917l-4.892-3.026-21.582-.291-21.582-.291-5.278 2.645m7.737 18.478c-1.764 1.764-2.002 3.091-1.75 9.75l.291 7.709h39v-8.332c0-11.34.303-11.168-19.691-11.168-14.582 0-15.967.158-17.85 2.041m-57.323 40.595L50 104.273v42.929c0 28.839.355 43.592 1.08 44.948 2.575 4.811 3.197 4.85 76.92 4.85s74.345-.039 76.92-4.85c.725-1.356 1.08-16.109 1.08-44.948v-42.929l-2.636-2.637L200.727 99H55.273l-2.637 2.636m66.561 12.863c-2.916.818-6.263 2.001-7.438 2.63-4.243 2.271-12.015 10.438-14.608 15.351-2.355 4.461-2.649 6.133-2.649 15.02 0 9.006.276 10.525 2.783 15.284 3.713 7.049 9.685 12.842 16.567 16.068 4.721 2.213 7.043 2.648 14.148 2.648 7.105 0 9.427-.435 14.148-2.648 6.882-3.226 12.854-9.019 16.567-16.068 2.507-4.759 2.783-6.278 2.783-15.284 0-8.921-.289-10.55-2.685-15.092-3.509-6.651-12.411-14.74-18.527-16.835-6.985-2.393-14.938-2.798-21.089-1.074m2.059 20.146c-6.744 3.324-9.578 11.578-6.425 18.707 5.179 11.706 21.14 11.75 26.306.072 5.557-12.564-7.49-24.888-19.881-18.779" fill="#212121" fill-rule="evenodd"/><path fill-opacity=".982" d="M106.994 40.898C99.984 43.132 94.785 47.504 91.41 54c-1.319 2.539-1.929 6.425-2.221 14.156l-.404 10.657-18.142.343c-17.491.332-18.347.444-23.825 3.134-6.437 3.161-11.134 8.006-14.212 14.659-2.044 4.416-2.106 5.897-2.106 50.051 0 42.234.136 45.852 1.891 50.404 2.436 6.314 7.664 12.056 14.046 15.424L51.5 215.5h153l5.063-2.672c6.382-3.368 11.61-9.11 14.046-15.424 1.755-4.552 1.891-8.17 1.891-50.404v-45.5l-2.79-5.682c-3.168-6.45-8.026-11.153-14.659-14.19-3.957-1.812-6.919-2.132-22.694-2.449l-18.142-.366-.407-10.657c-.445-11.673-2.06-16.277-7.466-21.292-6.441-5.974-8.137-6.347-29.842-6.565-11-.11-21.128.159-22.506.599m2.661 19.931c-1.256 1.387-1.655 3.8-1.655 10V79h40v-8.345C148 58.784 148.373 59 127.826 59c-14.73 0-16.695.198-18.171 1.829M54.42 99.885c-5.439 3.317-5.51 3.991-5.202 49.483l.282 41.798 3.266 2.917L56.032 197h143.936l3.266-2.917 3.266-2.917.281-42.072c.244-36.402.073-42.475-1.266-45.066-3.228-6.241-.486-6.028-77.715-6.024-67.014.003-70.444.091-73.38 1.881m60.882 16.218c-7.012 2.695-14.238 9.413-17.805 16.552-2.564 5.131-2.925 6.944-2.959 14.845-.046 10.774 1.884 15.829 8.907 23.338 19.843 21.214 55.984 8.601 58.308-20.349 1.206-15.019-7.734-29.34-21.541-34.509-7.043-2.637-17.87-2.584-24.91.123m4.596 19.167c-12.198 8.148-6.531 27.115 8.102 27.115s20.3-18.967 8.102-27.115c-2.33-1.557-4.876-2.27-8.102-2.27s-5.772.713-8.102 2.27" fill="#212121" fill-rule="evenodd"/></svg>